<?xml version="1.0" encoding="UTF-8" standalone="no"?>
<svg width="19px" height="14px" viewBox="0 0 19 14" version="1.1" xmlns="http://www.w3.org/2000/svg" xmlns:xlink="http://www.w3.org/1999/xlink" xmlns:sketch="http://www.bohemiancoding.com/sketch/ns">
    <!-- Generator: Sketch 3.3.3 (12072) - http://www.bohemiancoding.com/sketch -->
    <title>Shape Copy</title>
    <desc>Created with Sketch.</desc>
    <defs></defs>
    <g id="Page-1" stroke="none" stroke-width="1" fill="none" fill-rule="evenodd" sketch:type="MSPage">
        <g id="Desktop-HD" sketch:type="MSArtboardGroup" transform="translate(-110.000000, -52.000000)" fill="#FFFFFF" opacity="0.497901119">
            <g id="Mode-buttons" sketch:type="MSLayerGroup" transform="translate(8.000000, 52.000000)">
                <g id="Slideshow" transform="translate(87.000000, 0.000000)" sketch:type="MSShapeGroup">
                    <path d="M15.3125,0 L15.3125,14 L33.6875,14 L33.6875,0 L15.3125,0 L15.3125,0 Z M18.7578125,12.8333333 L16.4609375,12.8333333 L16.4609375,10.5 L18.7578125,10.5 L18.7578125,12.8333333 L18.7578125,12.8333333 Z M18.7578125,8.16666667 L16.4609375,8.16666667 L16.4609375,5.83333333 L18.7578125,5.83333333 L18.7578125,8.16666667 L18.7578125,8.16666667 Z M18.7578125,3.5 L16.4609375,3.5 L16.4609375,1.16666667 L18.7578125,1.16666667 L18.7578125,3.5 L18.7578125,3.5 Z M29.09375,12.8333333 L19.90625,12.8333333 L19.90625,1.16666667 L29.09375,1.16666667 L29.09375,12.8333333 L29.09375,12.8333333 Z M32.5390625,12.8333333 L30.2421875,12.8333333 L30.2421875,10.5 L32.5390625,10.5 L32.5390625,12.8333333 L32.5390625,12.8333333 Z M32.5390625,8.16666667 L30.2421875,8.16666667 L30.2421875,5.83333333 L32.5390625,5.83333333 L32.5390625,8.16666667 L32.5390625,8.16666667 Z M32.5390625,3.5 L30.2421875,3.5 L30.2421875,1.16666667 L32.5390625,1.16666667 L32.5390625,3.5 L32.5390625,3.5 Z M22.203125,3.5 L22.203125,10.5 L26.578125,7 L22.203125,3.5 Z" id="Shape-Copy"></path>
                </g>
            </g>
        </g>
    </g>
</svg>