<?xml version="1.0" encoding="UTF-8" standalone="no"?>
<svg width="14px" height="14px" viewBox="0 0 14 14" version="1.1" xmlns="http://www.w3.org/2000/svg" xmlns:xlink="http://www.w3.org/1999/xlink" xmlns:sketch="http://www.bohemiancoding.com/sketch/ns">
    <!-- Generator: Sketch 3.3.3 (12072) - http://www.bohemiancoding.com/sketch -->
    <title>pen</title>
    <desc>Created with Sketch.</desc>
    <defs></defs>
    <g id="Page-1" stroke="none" stroke-width="1" fill="none" fill-rule="evenodd" sketch:type="MSPage">
        <g id="Desktop-HD" sketch:type="MSArtboardGroup" transform="translate(-11.000000, -52.000000)" fill="#FFFFFF">
            <g id="Mode-buttons" sketch:type="MSLayerGroup" transform="translate(8.000000, 52.000000)">
                <g id="Edit" sketch:type="MSShapeGroup">
                    <g id="pen" transform="translate(3.000000, 0.000000)">
                        <path d="M13.1015294,4.57964706 L9.42035294,0.898470588 C9.30011765,0.778235294 9.142,0.805411765 9.06870588,0.958588235 L8.57541176,1.98635294 L12.0136471,5.42458824 L13.0414118,4.93129412 C13.1945882,4.858 13.2217647,4.69905882 13.1015294,4.57964706 L13.1015294,4.57964706 Z" id="Shape"></path>
                        <path d="M4.52941176,2.84776471 C4.30458824,2.87576471 4.11682353,2.92352941 4.05176471,3.21752941 C3.13270588,7.63247059 0,11.9403529 0,11.9403529 L0.737882353,12.6782353 L4.23788235,9.17823529 C4.16047059,9.01682353 4.11764706,8.83647059 4.11764706,8.64541176 C4.11764706,7.96352941 4.67105882,7.41011765 5.35294118,7.41011765 C6.03482353,7.41011765 6.58823529,7.96352941 6.58823529,8.64541176 C6.58823529,9.32729412 6.03482353,9.88070588 5.35294118,9.88070588 C5.16188235,9.88070588 4.98152941,9.83705882 4.82011765,9.76047059 L1.32011765,13.2604706 L2.058,13.9983529 C2.058,13.9983529 6.36588235,10.8656471 10.78,9.94658824 C11.0748235,9.88235294 11.1225882,9.69458824 11.1505882,9.46894118 L11.4330588,6.08011765 L7.91741176,2.56447059 L4.52941176,2.84776471 Z" id="Shape"></path>
                    </g>
                </g>
            </g>
        </g>
    </g>
</svg>