<?xml version="1.0" encoding="UTF-8" standalone="no"?>
<svg width="20px" height="14px" viewBox="0 0 20 14" version="1.1" xmlns="http://www.w3.org/2000/svg" xmlns:xlink="http://www.w3.org/1999/xlink" xmlns:sketch="http://www.bohemiancoding.com/sketch/ns">
    <!-- Generator: Sketch 3.3.3 (12072) - http://www.bohemiancoding.com/sketch -->
    <title>books</title>
    <desc>Created with Sketch.</desc>
    <defs></defs>
    <g id="Page-1" stroke="none" stroke-width="1" fill="none" fill-rule="evenodd" sketch:type="MSPage">
        <g id="Desktop-HD" sketch:type="MSArtboardGroup" transform="translate(-53.000000, -52.000000)" fill="#FFFFFF">
            <g id="Mode-buttons" sketch:type="MSLayerGroup" transform="translate(8.000000, 52.000000)">
                <g id="Library" transform="translate(39.000000, 0.000000)" sketch:type="MSShapeGroup">
                    <g id="books" transform="translate(6.000000, 0.000000)">
                        <path d="M4.08333333,0 L0.583333333,0 C0.2625,0 0,0.2625 0,0.583333333 L0,13.4166667 C0,13.7375 0.2625,14 0.583333333,14 L4.08333333,14 C4.40416667,14 4.66666667,13.7375 4.66666667,13.4166667 L4.66666667,0.583333333 C4.66666667,0.2625 4.40416667,0 4.08333333,0 L4.08333333,0 Z M3.5,3.5 L1.16666667,3.5 L1.16666667,2.33333333 L3.5,2.33333333 L3.5,3.5 L3.5,3.5 Z" id="Shape"></path>
                        <path d="M9.91666667,0 L6.41666667,0 C6.09583333,0 5.83333333,0.2625 5.83333333,0.583333333 L5.83333333,13.4166667 C5.83333333,13.7375 6.09583333,14 6.41666667,14 L9.91666667,14 C10.2375,14 10.5,13.7375 10.5,13.4166667 L10.5,0.583333333 C10.5,0.2625 10.2375,0 9.91666667,0 L9.91666667,0 Z M9.33333333,3.5 L7,3.5 L7,2.33333333 L9.33333333,2.33333333 L9.33333333,3.5 L9.33333333,3.5 Z" id="Shape"></path>
                        <path d="M13.9463333,0.901833333 L10.8208333,2.47683333 C10.5338333,2.6215 10.4183333,2.97383333 10.5618333,3.25966667 L15.8118333,13.678 C15.9565,13.965 16.3088333,14.0805 16.5946667,13.937 L19.7201667,12.362 C20.0071667,12.2173333 20.1226667,11.865 19.9791667,11.5791667 L14.7291667,1.16083333 C14.5845,0.873833333 14.2321667,0.758333333 13.9463333,0.901833333 L13.9463333,0.901833333 Z" id="Shape"></path>
                        <path d="M16.9166667,13.4166667 C16.9166667,13.7386667 16.6553333,14 16.3333333,14 C16.0113333,14 15.75,13.7386667 15.75,13.4166667 C15.75,13.0946667 16.0113333,12.8333333 16.3333333,12.8333333 C16.6553333,12.8333333 16.9166667,13.0946667 16.9166667,13.4166667 L16.9166667,13.4166667 Z" id="Shape"></path>
                    </g>
                </g>
            </g>
        </g>
    </g>
</svg>